<?xml version="1.0" encoding="UTF-8"?>
<svg width="162px" height="45px" viewBox="0 0 162 45" version="1.1" xmlns="http://www.w3.org/2000/svg" xmlns:xlink="http://www.w3.org/1999/xlink">
    <!-- Generator: Sketch 3.6.1 (26313) - http://www.bohemiancoding.com/sketch -->
    <title>Breeze</title>
    <desc>Created with Sketch.</desc>
    <defs></defs>
    <g id="Page-1" stroke="none" stroke-width="1" fill="none" fill-rule="evenodd">
        <path d="M0.671875,8.22600208 C1.05402077,6.22708573 1.76685893,4.64708363 2.81041085,3.48594839 C3.85396277,2.32481316 5.05917367,1.53113769 6.42607971,1.10489817 C7.79298575,0.678658651 9.24805745,0.575774794 10.7913385,0.79624351 C12.3346195,1.01671223 13.79704,1.50173612 15.178644,2.25132976 C16.5602479,3.00092339 17.7801565,3.97097119 18.8384063,5.16150226 C19.8966562,6.35203332 20.6315409,7.70422116 21.0430825,9.21810634 C21.4546241,10.7319915 21.4546241,12.3707844 21.0430825,14.1345341 C20.6315409,15.8982838 19.6614931,17.7207979 18.13291,19.6021309 C19.338139,20.0136725 20.440466,20.4325568 21.4399242,20.8587963 C22.4393824,21.2850358 23.2918486,21.806804 23.9973485,22.4241164 C24.7028484,23.0414288 25.2540119,23.7910112 25.6508556,24.672886 C26.0476993,25.5547609 26.2461182,26.6570879 26.2461182,27.9799002 C26.2461182,29.0675459 26.0476993,30.213966 25.6508556,31.419195 C25.2540119,32.624424 24.7028484,33.8149372 23.9973485,34.9907704 C23.2918486,36.1666035 22.4761266,37.2836282 21.550158,38.3418781 C20.6241894,39.4001279 19.6247462,40.3334315 18.5517984,41.1418168 C17.4788507,41.9502021 16.3765237,42.5969006 15.2447842,43.0819318 C14.1130448,43.5669629 13.0033689,43.8094749 11.9157233,43.8094749 C11.2102234,43.8094749 10.5120829,43.3538464 9.82128096,42.4425757 C9.13047898,41.531305 8.46173391,40.3187452 7.81502567,38.8048601 C7.16831744,37.2909749 6.5363166,35.556647 5.9190042,33.6018244 C5.3016918,31.6470018 4.72848173,29.61872 4.19935681,27.5169183 C3.6702319,25.4151165 3.19255684,23.3206951 2.76631733,21.2335913 C2.34007781,19.1464874 1.97263546,17.2210895 1.66397926,15.4573398 C1.35532306,13.6935901 1.11281111,12.1723788 0.936436136,10.8936602 C0.760061163,9.61494165 0.671875,8.72573117 0.671875,8.22600208 L0.671875,8.22600208 Z M9.40239249,29.4349865 C9.40239249,29.9935072 9.52732289,30.7283919 9.77718743,31.6396626 C10.027052,32.5509333 10.3577501,33.4695392 10.7692917,34.3955078 C11.1808333,35.3214764 11.6364618,36.1665938 12.1361909,36.9308853 C12.63592,37.6951769 13.1503393,38.2095962 13.6794642,38.4741586 C14.1497975,38.7093253 14.6936121,38.672581 15.3109245,38.3639248 C15.9282369,38.0552686 16.5528889,37.5702447 17.1848992,36.9088386 C17.8169096,36.2474324 18.4342127,35.4831524 19.0368272,34.6159754 C19.6394417,33.7487985 20.1759075,32.8889834 20.6462408,32.0365043 C21.116574,31.1840253 21.4913652,30.3903498 21.7706256,29.6554541 C22.049886,28.9205584 22.1895141,28.362046 22.1895141,27.9799002 C22.1895141,27.1274212 22.0719325,26.4292807 21.8367659,25.8854579 C21.6015993,25.3416351 21.2635523,24.9080531 20.8226149,24.584699 C20.3816774,24.2613449 19.8599093,24.0335306 19.2572948,23.9012494 C18.6546803,23.7689682 17.9859352,23.7028285 17.2510395,23.7028285 C16.4573522,23.7028285 15.6048859,23.8351078 14.6936152,24.0996702 C13.7823445,24.3642327 12.9372271,24.7390239 12.1582377,25.2240551 C11.3792482,25.7090863 10.7252008,26.3116917 10.1960759,27.0318895 C9.66695098,27.7520873 9.40239249,28.5531116 9.40239249,29.4349865 L9.40239249,29.4349865 Z M6.22765886,12.7676349 C6.22765886,13.3555515 6.21296116,14.0830873 6.18356534,14.9502643 C6.15416951,15.8174412 6.16151835,16.7140006 6.2056121,17.6399692 C6.24970584,18.5659378 6.3525897,19.4845437 6.51426676,20.3958143 C6.67594381,21.307085 6.96254885,22.0860628 7.37409045,22.732771 C8.99086103,22.4388128 10.3944908,21.8803004 11.5850219,21.0572172 C12.7755529,20.234134 13.7382519,19.2787839 14.4731476,18.1911382 C15.2080433,17.1034925 15.7371603,15.9350259 16.0605144,14.6857032 C16.3838685,13.4363804 16.5014501,12.2311695 16.4132626,11.0700343 C16.3250751,9.90889906 16.0458189,8.8359674 15.5754857,7.85120714 C15.1051524,6.86644688 14.4437562,6.10216679 13.5912771,5.55834396 C12.7387981,5.01452113 11.7099595,4.74261379 10.5047306,4.74261379 C9.29950158,4.74261379 7.91791835,5.13945153 6.35993943,5.9331389 C6.35993943,6.19770136 6.35259058,6.65332987 6.33789266,7.30003811 C6.32319475,7.94674634 6.30849706,8.63018911 6.29379914,9.35038691 C6.27910123,10.0705847 6.26440353,10.7540275 6.24970562,11.4007357 C6.23500771,12.0474439 6.22765886,12.5030725 6.22765886,12.7676349 L6.22765886,12.7676349 Z M29.3767583,24.1878573 C29.3767583,23.893899 29.391456,23.5925963 29.4208518,23.2839401 C29.4502476,22.9752839 29.5163872,22.6960277 29.6192726,22.4461631 C29.722158,22.1962986 29.8838327,21.9905309 30.1043014,21.8288538 C30.3247701,21.6671768 30.6260728,21.5863395 31.0082186,21.5863395 C31.3315727,21.5863395 31.6990151,21.8435491 32.1105567,22.3579761 C32.5220983,22.8724031 32.9409826,23.5117528 33.3672221,24.2760443 C33.7934616,25.0403359 34.204997,25.8781044 34.6018407,26.7893751 C34.9986844,27.7006458 35.3587779,28.5457632 35.682132,29.3247527 C36.0054861,30.1037421 36.2626958,30.7651384 36.4537687,31.3089612 C36.6448415,31.852784 36.7550742,32.1393891 36.7844701,32.1687849 C37.1960117,31.0517434 37.6663379,29.8171371 38.1954628,28.464929 C38.7245877,27.1127209 39.3712863,25.856068 40.1355778,24.6949328 C40.8998693,23.5337976 41.8184752,22.5637498 42.891423,21.7847603 C43.9643707,21.0057708 45.2651166,20.616282 46.7936997,20.616282 C47.5579913,20.616282 48.292876,20.7412124 48.9983759,20.9910769 C49.7038758,21.2409414 50.3285277,21.6010349 50.8723506,22.0713682 C51.4161734,22.5417015 51.8497554,23.1075627 52.1731095,23.7689688 C52.4964636,24.430375 52.6581382,25.1726085 52.6581382,25.9956917 C52.6581382,26.7305874 52.3715332,27.2450067 51.7983146,27.538965 C51.2250959,27.8329233 50.5857462,27.9799002 49.8802463,27.9799002 L49.3952176,27.9799002 L47.2787285,25.8634112 C47.2199368,25.8634112 47.161146,25.8487135 47.1023544,25.8193176 C47.0435627,25.8193176 46.9921208,25.8119688 46.9480271,25.7972709 C46.9039333,25.782573 46.8524914,25.7752241 46.7936997,25.7752241 C45.6472624,25.7752241 44.7507031,26.0912245 44.1039948,26.7232348 C43.4572866,27.3552452 42.9722627,28.1342229 42.6489086,29.0601915 C42.3255545,29.9861602 42.1271356,30.9709056 42.053646,32.0144576 C41.9801565,33.0580095 41.9434122,33.9913131 41.9434122,34.8143963 C41.9434122,35.4905003 42.0095519,36.1592454 42.1418331,36.8206515 C42.2741143,37.4820577 42.4210913,38.1361051 42.5827683,38.7828133 C42.7444454,39.4295215 42.8914223,40.0835689 43.0237035,40.7449751 C43.1559848,41.4063812 43.2221244,42.089824 43.2221244,42.7953239 C43.2221244,44.1769278 42.4872397,44.8677194 41.0174483,44.8677194 C40.1943651,44.8677194 39.3418988,44.4341375 38.4600239,43.5669605 C37.5781491,42.6997836 36.7036363,41.5974565 35.8364593,40.2599463 C34.9692824,38.9224361 34.1462115,37.4453179 33.3672221,35.8285473 C32.5882326,34.2117767 31.9047898,32.6391235 31.3168733,31.1105404 C30.7289567,29.5819573 30.2586305,28.1930252 29.9058805,26.9437025 C29.5531306,25.6943797 29.3767583,24.7757739 29.3767583,24.1878573 L29.3767583,24.1878573 Z M54.4218792,31.1546339 C54.4218792,29.3908842 54.6349957,27.6271609 55.0612352,25.8634112 C55.4874747,24.0996614 56.1709175,22.5123105 57.111584,21.1013107 C58.0522506,19.6903109 59.2648103,18.5438908 60.7492997,17.6620159 C62.233789,16.7801411 64.0342565,16.3392103 66.1507562,16.3392103 C67.3559852,16.3392103 68.4142191,16.5596757 69.3254898,17.0006131 C70.2367605,17.4415505 71.0010406,18.0221094 71.618353,18.7423072 C72.2356654,19.462505 72.7059916,20.3076224 73.0293457,21.2776848 C73.3526998,22.2477471 73.5143745,23.261888 73.5143745,24.3201379 C73.5143745,25.9663043 73.1248856,27.5757018 72.3458961,29.1483786 C71.5669067,30.7210554 70.5307192,32.1026387 69.2373028,33.2931697 C67.9438863,34.4837008 66.4667681,35.3802601 64.8059037,35.9828746 C63.1450394,36.5854891 61.4474558,36.7251172 59.7131019,36.4017631 C59.7424977,37.3424296 60.0584981,38.0993608 60.6611126,38.6725795 C61.2637271,39.2457982 61.9912629,39.6793801 62.843742,39.9733384 C63.696221,40.2672967 64.5854315,40.4583667 65.5114001,40.5465542 C66.4373687,40.6347417 67.2530907,40.6788348 67.9585906,40.6788348 C68.6934863,40.6788348 69.3916268,40.6126952 70.0530329,40.4804139 C70.7144391,40.3481327 71.3684865,40.2011558 72.0151947,40.0394787 C72.6619029,39.8778016 73.3232992,39.7308247 73.9994032,39.5985435 C74.6755073,39.4662622 75.3809966,39.4001226 76.1158923,39.4001226 C76.4098506,39.4001226 76.7111533,39.4148203 77.0198095,39.4442161 C77.3284657,39.473612 77.6077219,39.5471004 77.8575865,39.6646838 C78.107451,39.7822671 78.3132187,39.9586394 78.4748958,40.193806 C78.6365728,40.4289727 78.7174102,40.7376242 78.7174102,41.11977 C78.7174102,41.7370824 78.4895959,42.2515017 78.0339605,42.6630433 C77.5783252,43.0745849 77.0051151,43.4199807 76.3143132,43.6992411 C75.6235112,43.9785015 74.8518823,44.1989669 73.9994032,44.3606439 C73.1469242,44.522321 72.3165045,44.6399025 71.5081192,44.7133921 C70.6997339,44.7868817 69.9648492,44.8309748 69.3034431,44.8456727 C68.6420369,44.8603706 68.1496642,44.8677194 67.82631,44.8677194 C65.7098104,44.8677194 63.8211567,44.5370213 62.1602924,43.8756152 C60.4994281,43.214209 59.0957983,42.2882543 57.949361,41.0977232 C56.8029236,39.9071922 55.9284109,38.4668182 55.3257964,36.776558 C54.7231819,35.0862979 54.4218792,33.2123419 54.4218792,31.1546339 L54.4218792,31.1546339 Z M59.6249148,27.9799002 C59.6249148,29.1263376 59.7792406,29.9567573 60.0878968,30.4711843 C60.396553,30.9856113 61.1534843,31.2428209 62.3587132,31.2428209 C63.2111923,31.2428209 64.0489608,31.0884951 64.872044,30.7798389 C65.6951272,30.4711827 66.4373608,30.0376008 67.0987669,29.47908 C67.7601731,28.9205593 68.2892901,28.2665119 68.6861337,27.5169183 C69.0829774,26.7673246 69.2813963,25.9516026 69.2813963,25.0697277 C69.2813963,24.5993945 69.2373032,24.0996729 69.1491157,23.570548 C69.0609282,23.0414231 68.8919048,22.5563992 68.6420402,22.1154617 C68.3921757,21.6745243 68.0614776,21.3144308 67.649936,21.0351704 C67.2383944,20.75591 66.7092774,20.616282 66.0625691,20.616282 C65.063111,20.616282 64.1665516,20.8367474 63.3728643,21.2776848 C62.5791769,21.7186222 61.903083,22.2918323 61.3445622,22.9973322 C60.7860415,23.7028321 60.3598083,24.4891587 60.0658501,25.3563356 C59.7718918,26.2235126 59.6249148,27.0980254 59.6249148,27.9799002 L59.6249148,27.9799002 Z M81.7598632,31.1546339 C81.7598632,29.3908842 81.9729798,27.6271609 82.3992193,25.8634112 C82.8254588,24.0996614 83.5089016,22.5123105 84.4495681,21.1013107 C85.3902346,19.6903109 86.6027944,18.5438908 88.0872837,17.6620159 C89.5717731,16.7801411 91.3722406,16.3392103 93.4887402,16.3392103 C94.6939692,16.3392103 95.7522032,16.5596757 96.6634739,17.0006131 C97.5747446,17.4415505 98.3390247,18.0221094 98.9563371,18.7423072 C99.5736495,19.462505 100.043976,20.3076224 100.36733,21.2776848 C100.690684,22.2477471 100.852359,23.261888 100.852359,24.3201379 C100.852359,25.9663043 100.46287,27.5757018 99.6838802,29.1483786 C98.9048907,30.7210554 97.8687033,32.1026387 96.5752868,33.2931697 C95.2818704,34.4837008 93.8047521,35.3802601 92.1438878,35.9828746 C90.4830235,36.5854891 88.7854398,36.7251172 87.0510859,36.4017631 C87.0804818,37.3424296 87.3964822,38.0993608 87.9990967,38.6725795 C88.6017112,39.2457982 89.329247,39.6793801 90.181726,39.9733384 C91.0342051,40.2672967 91.9234156,40.4583667 92.8493842,40.5465542 C93.7753528,40.6347417 94.5910748,40.6788348 95.2965747,40.6788348 C96.0314704,40.6788348 96.7296109,40.6126952 97.391017,40.4804139 C98.0524232,40.3481327 98.7064705,40.2011558 99.3531788,40.0394787 C99.999887,39.8778016 100.661283,39.7308247 101.337387,39.5985435 C102.013491,39.4662622 102.718981,39.4001226 103.453876,39.4001226 C103.747835,39.4001226 104.049137,39.4148203 104.357794,39.4442161 C104.66645,39.473612 104.945706,39.5471004 105.195571,39.6646838 C105.445435,39.7822671 105.651203,39.9586394 105.81288,40.193806 C105.974557,40.4289727 106.055394,40.7376242 106.055394,41.11977 C106.055394,41.7370824 105.82758,42.2515017 105.371945,42.6630433 C104.916309,43.0745849 104.343099,43.4199807 103.652297,43.6992411 C102.961495,43.9785015 102.189866,44.1989669 101.337387,44.3606439 C100.484908,44.522321 99.6544885,44.6399025 98.8461033,44.7133921 C98.037718,44.7868817 97.3028333,44.8309748 96.6414271,44.8456727 C95.980021,44.8603706 95.4876482,44.8677194 95.1642941,44.8677194 C93.0477944,44.8677194 91.1591408,44.5370213 89.4982764,43.8756152 C87.8374121,43.214209 86.4337824,42.2882543 85.287345,41.0977232 C84.1409077,39.9071922 83.2663949,38.4668182 82.6637804,36.776558 C82.0611659,35.0862979 81.7598632,33.2123419 81.7598632,31.1546339 L81.7598632,31.1546339 Z M86.9628989,27.9799002 C86.9628989,29.1263376 87.1172247,29.9567573 87.4258809,30.4711843 C87.7345371,30.9856113 88.4914683,31.2428209 89.6966973,31.2428209 C90.5491763,31.2428209 91.3869449,31.0884951 92.2100281,30.7798389 C93.0331113,30.4711827 93.7753448,30.0376008 94.436751,29.47908 C95.0981571,28.9205593 95.6272741,28.2665119 96.0241178,27.5169183 C96.4209615,26.7673246 96.6193804,25.9516026 96.6193804,25.0697277 C96.6193804,24.5993945 96.5752873,24.0996729 96.4870998,23.570548 C96.3989123,23.0414231 96.2298888,22.5563992 95.9800243,22.1154617 C95.7301597,21.6745243 95.3994616,21.3144308 94.98792,21.0351704 C94.5763784,20.75591 94.0472614,20.616282 93.4005532,20.616282 C92.401095,20.616282 91.5045357,20.8367474 90.7108483,21.2776848 C89.9171609,21.7186222 89.241067,22.2918323 88.6825463,22.9973322 C88.1240255,23.7028321 87.6977924,24.4891587 87.4038341,25.3563356 C87.1098758,26.2235126 86.9628989,27.0980254 86.9628989,27.9799002 L86.9628989,27.9799002 Z M125.941573,20.616282 C126.02976,20.5574903 126.0959,20.4693041 126.139994,20.3517208 C126.184088,20.2341375 126.206134,20.1459513 126.206134,20.0871597 C126.206134,19.3228681 125.757854,18.8231465 124.861282,18.5879799 C123.964709,18.3528133 122.847684,18.2425806 121.510174,18.2572785 C120.172664,18.2719764 118.724941,18.3454649 117.166962,18.4777461 C115.608983,18.6100273 114.16126,18.6688181 112.82375,18.6541202 C111.48624,18.6394223 110.369215,18.4777476 109.472642,18.1690914 C108.576069,17.8604352 108.12779,17.2798763 108.12779,16.4273973 C108.12779,15.8688766 108.171883,15.4499923 108.26007,15.1707319 C108.348258,14.8914715 108.473188,14.6930527 108.634865,14.5754693 C108.796542,14.457886 108.994961,14.3917464 109.230128,14.3770485 C109.465294,14.3623506 109.729853,14.3550017 110.023811,14.3550017 L111.302523,14.3550017 C111.714065,14.3843976 112.360764,14.4211418 113.242638,14.4652355 C114.124513,14.5093293 115.116608,14.5607712 116.218951,14.6195629 C117.321295,14.6783545 118.482413,14.7444942 119.702339,14.8179837 C120.922266,14.8914733 122.083384,14.9649618 123.185728,15.0384513 C124.288071,15.1119409 125.272817,15.1780805 126.139994,15.2368722 C127.007171,15.2956638 127.661218,15.3397569 128.102156,15.3691528 C128.690072,15.7219027 129.189794,16.045252 129.601335,16.3392103 C130.012877,16.6331685 130.343575,16.9271224 130.59344,17.2210807 C130.843304,17.515039 131.027025,17.8383883 131.144609,18.1911382 C131.262192,18.5438882 131.320983,18.984819 131.320983,19.5139439 C131.320983,20.6015896 131.093168,21.6818701 130.637533,22.7548178 C130.181898,23.8277656 129.601339,24.8933484 128.895839,25.9515982 C128.190339,27.009848 127.389315,28.068082 126.492742,29.1263318 C125.596169,30.1845817 124.721656,31.2354668 123.869177,32.2790187 C123.016698,33.3225706 122.215674,34.3661069 121.46608,35.4096588 C120.716487,36.4532107 120.12123,37.4747005 119.680293,38.4741586 L132.29104,38.4741586 C133.231707,38.4741586 133.834312,38.650531 134.098875,39.0032809 C134.363437,39.3560309 134.495716,39.8557525 134.495716,40.5024607 C134.495716,40.9727939 134.444274,41.3990271 134.341389,41.7811728 C134.238504,42.1633186 133.893108,42.4572725 133.305191,42.6630433 C131.747212,42.8100224 130.16721,43.0084413 128.565138,43.2583059 C126.963065,43.5081704 125.361016,43.76538 123.758944,44.0299425 C122.156871,44.294505 120.547473,44.5223192 118.930703,44.7133921 C117.313932,44.904465 115.711884,45 114.124509,45 C114.124509,42.6777295 114.491951,40.4289824 115.226847,38.253691 C115.961743,36.0783997 116.902395,33.9766295 118.048832,31.9483173 C119.19527,29.9200051 120.46662,27.957863 121.862922,26.061832 C123.259224,24.1658011 124.618761,22.3506359 125.941573,20.616282 L125.941573,20.616282 Z M137.449982,31.1546339 C137.449982,29.3908842 137.663099,27.6271609 138.089338,25.8634112 C138.515578,24.0996614 139.199021,22.5123105 140.139687,21.1013107 C141.080354,19.6903109 142.292914,18.5438908 143.777403,17.6620159 C145.261892,16.7801411 147.06236,16.3392103 149.178859,16.3392103 C150.384088,16.3392103 151.442322,16.5596757 152.353593,17.0006131 C153.264864,17.4415505 154.029144,18.0221094 154.646456,18.7423072 C155.263769,19.462505 155.734095,20.3076224 156.057449,21.2776848 C156.380803,22.2477471 156.542478,23.261888 156.542478,24.3201379 C156.542478,25.9663043 156.152989,27.5757018 155.373999,29.1483786 C154.59501,30.7210554 153.558822,32.1026387 152.265406,33.2931697 C150.97199,34.4837008 149.494871,35.3802601 147.834007,35.9828746 C146.173143,36.5854891 144.475559,36.7251172 142.741205,36.4017631 C142.770601,37.3424296 143.086601,38.0993608 143.689216,38.6725795 C144.29183,39.2457982 145.019366,39.6793801 145.871845,39.9733384 C146.724324,40.2672967 147.613535,40.4583667 148.539503,40.5465542 C149.465472,40.6347417 150.281194,40.6788348 150.986694,40.6788348 C151.72159,40.6788348 152.41973,40.6126952 153.081136,40.4804139 C153.742542,40.3481327 154.39659,40.2011558 155.043298,40.0394787 C155.690006,39.8778016 156.351402,39.7308247 157.027506,39.5985435 C157.70361,39.4662622 158.4091,39.4001226 159.143996,39.4001226 C159.437954,39.4001226 159.739257,39.4148203 160.047913,39.4442161 C160.356569,39.473612 160.635825,39.5471004 160.88569,39.6646838 C161.135554,39.7822671 161.341322,39.9586394 161.502999,40.193806 C161.664676,40.4289727 161.745513,40.7376242 161.745513,41.11977 C161.745513,41.7370824 161.517699,42.2515017 161.062064,42.6630433 C160.606428,43.0745849 160.033218,43.4199807 159.342416,43.6992411 C158.651614,43.9785015 157.879985,44.1989669 157.027506,44.3606439 C156.175027,44.522321 155.344608,44.6399025 154.536222,44.7133921 C153.727837,44.7868817 152.992952,44.8309748 152.331546,44.8456727 C151.67014,44.8603706 151.177767,44.8677194 150.854413,44.8677194 C148.737914,44.8677194 146.84926,44.5370213 145.188396,43.8756152 C143.527531,43.214209 142.123902,42.2882543 140.977464,41.0977232 C139.831027,39.9071922 138.956514,38.4668182 138.3539,36.776558 C137.751285,35.0862979 137.449982,33.2123419 137.449982,31.1546339 L137.449982,31.1546339 Z M142.653018,27.9799002 C142.653018,29.1263376 142.807344,29.9567573 143.116,30.4711843 C143.424656,30.9856113 144.181587,31.2428209 145.386816,31.2428209 C146.239295,31.2428209 147.077064,31.0884951 147.900147,30.7798389 C148.72323,30.4711827 149.465464,30.0376008 150.12687,29.47908 C150.788276,28.9205593 151.317393,28.2665119 151.714237,27.5169183 C152.111081,26.7673246 152.3095,25.9516026 152.3095,25.0697277 C152.3095,24.5993945 152.265406,24.0996729 152.177219,23.570548 C152.089031,23.0414231 151.920008,22.5563992 151.670143,22.1154617 C151.420279,21.6745243 151.089581,21.3144308 150.678039,21.0351704 C150.266498,20.75591 149.737381,20.616282 149.090672,20.616282 C148.091214,20.616282 147.194655,20.8367474 146.400967,21.2776848 C145.60728,21.7186222 144.931186,22.2918323 144.372665,22.9973322 C143.814145,23.7028321 143.387912,24.4891587 143.093953,25.3563356 C142.799995,26.2235126 142.653018,27.0980254 142.653018,27.9799002 L142.653018,27.9799002 Z" id="Breeze" fill="#273340"></path>
    </g>
</svg>